# xmcd CD database file
#
# Track frame offsets:
#	150
#	8568
#	25657
#	42180
#	67342
#	82279
#	108345
#	122013
#	162988
#	172195
#	188209
#	211380
#	229650
#	249630
#	267915
#
# Disc length: 3812 seconds
#
# Revision: 0
# Processed by: cddbd v1.5.1PL2 Copyright (c) Steve Scherf et al.
# Submitted via: CDex 1.51
#
DISCID=d10ee20f
DTITLE=Hair Of The Dog - Putting The Rythem Back In The Blues
DYEAR=2005
DGENRE=Blues
TTITLE0=Scuttle Buttin'
TTITLE1=La Grange
TTITLE2=How Many Lies
TTITLE3=I Drink Alone
TTITLE4=My Baby
TTITLE5=She Grieves Me
TTITLE6=Adalaide Blues
TTITLE7=Driftin'
TTITLE8=Key To Love
TTITLE9=You Don' Love Me
TTITLE10=Sugar Turns To Alcohol
TTITLE11=Hair Of The Dog
TTITLE12=I'm Going Down
TTITLE13=Cold Black Night
TTITLE14=Scuttle Buttin'
EXTD=YEAR: 2005
EXTT0=
EXTT1=
EXTT2=
EXTT3=
EXTT4=
EXTT5=
EXTT6=
EXTT7=
EXTT8=
EXTT9=
EXTT10=
EXTT11=
EXTT12=
EXTT13=
EXTT14=
PLAYORDER=
